# xmcd
#
# Track frame offsets:
#	150
#	13293
#	36572
#	54212
#	67212
#	79519
#	91677
#	105168
#	119884
#	137833
#	153841
#	172224
#	186848
#	204254
#
# Disc length: 2990 seconds
#
# Revision: 1
# Processed by: cddbd v1.5.2PL0 Copyright (c) Steve Scherf et al.
# Submitted via: audiograbber 1.83.01
#
DISCID=be0bac0e
DTITLE=The Blues Band - These Kind of Blues (2005 remaster)
DYEAR=1982
DGENRE=Blues
TTITLE0=Tobacco Road
TTITLE1=Doing All Right
TTITLE2=Time After Time
TTITLE3=Stealing
TTITLE4=That's It, I Quit
TTITLE5=Bad Penny Blues
TTITLE6=Let The Four Winds Blow
TTITLE7=Bad Luck
TTITLE8=Hardworking Man
TTITLE9=These Kind of Blues
TTITLE10=Smokestack Lightning
TTITLE11=Ten Good Reasons
TTITLE12=You've Got to Choose
TTITLE13=Let Me Sleep On It
EXTD=Recorded 1979-1982
EXTT0=
EXTT1=
EXTT2=
EXTT3=
EXTT4=
EXTT5=
EXTT6=
EXTT7=
EXTT8=
EXTT9=
EXTT10=
EXTT11=
EXTT12=
EXTT13=
PLAYORDER=
